<svg xmlns="http://www.w3.org/2000/svg" width="118" height="32" fill="none"><g clip-path="url(#a)"><mask id="b" width="118" height="32" x="0" y="0" maskUnits="userSpaceOnUse" style="mask-type:luminance"><path fill="#fff" d="M118 0H0v32h118V0z"/></mask><g fill="#848486" mask="url(#b)"><path d="M16.247 32c9.005 0 16.305-7.163 16.305-16s-7.3-16-16.305-16C7.704 0 .696 6.448 0 14.655h21.55v2.69H0C.696 25.552 7.704 32 16.247 32zm24.443-4.02h9.679c4.32 0 7.398-2.515 7.398-6.627 0-3.195-1.867-5.234-4.91-5.811v-.102c2.559-.612 4.149-2.447 4.149-5.2 0-3.806-2.87-6.184-6.983-6.184H40.69v23.923zm13.723-17.434c0 2.447-1.797 4.01-4.735 4.01h-6.396V6.231h6.396c2.938 0 4.735 1.529 4.735 3.976v.34zm.76 10.875c0 2.65-1.97 4.383-5.184 4.383h-6.707v-9.14h6.672c3.215 0 5.22 1.664 5.22 4.417v.34zm20.764 6.559h2.766l-8.09-23.924h-3.145l-7.985 23.923h2.627l2.074-6.49h9.68l2.073 6.49zM68.954 6.671h.208l4.044 12.676h-8.33l4.078-12.676zm20.66 21.783c5.324 0 8.815-2.82 8.815-7.068 0-3.942-2.627-5.811-6.603-6.457l-3.525-.578c-2.697-.441-4.494-1.597-4.494-4.146 0-2.582 2.005-4.553 5.807-4.553 3.699 0 5.6 1.835 5.808 4.452h2.661c-.207-3.467-2.903-6.56-8.434-6.56-5.462 0-8.47 3.025-8.47 6.763 0 3.976 2.731 5.811 6.465 6.423l3.56.544c2.973.51 4.633 1.699 4.633 4.214 0 2.956-2.455 4.86-6.188 4.86-3.872 0-6.292-1.836-6.5-4.962h-2.626c.207 4.078 3.387 7.068 9.091 7.068zm12.709-24.398v23.923h15.625V25.77h-13.032v-9.107h11.995v-2.175h-11.995V6.265h13.032v-2.21h-15.625z"/></g></g><defs><clipPath id="a"><path fill="#fff" d="M0 0h118v32H0z"/></clipPath></defs></svg>