<svg xmlns="http://www.w3.org/2000/svg" width="120" height="39" fill="none"><g clip-path="url(#a)"><mask id="b" width="120" height="39" x="0" y="0" maskUnits="userSpaceOnUse" style="mask-type:luminance"><path fill="#fff" d="M119.692 0H.154v39h119.538V0z"/></mask><g fill="#848486" mask="url(#b)"><path d="M22.052 0c.223 0 .439.096.585.27l2.877 3.354c.038-.006.07-.013.108-.02.694-.12 1.406-.172 2.094-.089.878.103 1.622.41 2.182.988a102.38 102.38 0 0 1 2.374 2.514c.261.283.318.616.204.905l-.745 1.873.987 2.9a.838.838 0 0 1 .019.467l-.038.16c-.03.12-.068.268-.115.443-.12.481-.26 1.014-.407 1.591-.42 1.649-.847 3.29-1.241 4.83-.974 3.798-1.61 6.3-1.763 6.922-.834 3.393-1.502 4.567-3.646 6.119-1.878 1.36-5.804 4.086-6.555 4.567-.07.045-.153.103-.255.173l-.299.206a6.52 6.52 0 0 1-.91.551 2.37 2.37 0 0 1-1.044.263c-.343 0-.687-.096-1.043-.263a6.46 6.46 0 0 1-.91-.551c-.058-.039-.255-.18-.3-.206-.108-.07-.184-.128-.254-.173-.757-.481-4.677-3.207-6.555-4.567-2.144-1.552-2.806-2.726-3.646-6.12-.153-.622-.79-3.123-1.757-6.895-.4-1.565-.827-3.214-1.247-4.856-.146-.577-.286-1.11-.407-1.59a202.7 202.7 0 0 1-.115-.443 1.389 1.389 0 0 1-.038-.16.837.837 0 0 1 .02-.469l.986-2.9-.745-1.872a.821.821 0 0 1 .153-.853c.089-.103.14-.154.19-.212a102.525 102.525 0 0 1 2.234-2.36c.56-.571 1.305-.88 2.183-.988a6.97 6.97 0 0 1 2.094.09c.038.006.076.012.108.019l2.87-3.349A.767.767 0 0 1 10.871 0h11.18zm-.357 1.604H11.22L8.274 5.042a.768.768 0 0 1-.795.244c-.013 0-.051-.013-.109-.026a3.589 3.589 0 0 0-.343-.07 5.713 5.713 0 0 0-1.642-.078c-.554.064-.98.244-1.26.526-.573.59-1.146 1.187-1.687 1.77-.127.135-.248.27-.362.386l.662 1.674a.82.82 0 0 1 .012.564L1.745 12.99c.025.11.038.148.095.366.121.481.261 1.013.408 1.59.42 1.65.846 3.291 1.24 4.83.974 3.811 1.617 6.306 1.77 6.935.75 3.053 1.234 3.9 3.029 5.202 1.858 1.34 5.76 4.054 6.485 4.522.089.058.184.122.305.206.045.032.242.173.3.205.305.211.502.34.693.423.165.077.299.115.388.115.09 0 .216-.038.388-.115.185-.09.388-.218.694-.423.05-.039.254-.18.299-.206.12-.083.216-.147.305-.205.726-.468 4.627-3.175 6.485-4.522 1.801-1.302 2.278-2.149 3.03-5.202.152-.629.795-3.13 1.762-6.909.401-1.565.828-3.213 1.248-4.855.146-.578.286-1.11.407-1.591.057-.218.063-.257.095-.366l-1.005-2.957a.818.818 0 0 1 .012-.564l.662-1.674a9.541 9.541 0 0 0-.362-.385c-.541-.584-1.114-1.18-1.687-1.77-.274-.283-.7-.463-1.26-.527-.515-.064-1.082-.025-1.642.077-.127.026-.242.045-.343.07-.058.014-.096.027-.109.027a.768.768 0 0 1-.795-.244l-2.947-3.438zm-5.237 22.47c.21 0 1.578.493 2.673 1.077 1.094.584 1.89.994 2.138 1.155.255.16.102.468-.133.635-.23.167-3.335 2.636-3.634 2.905-.3.276-.745.725-1.044.725-.3 0-.745-.449-1.044-.725-.299-.275-3.404-2.738-3.633-2.905-.23-.167-.389-.475-.134-.635.255-.16 1.044-.571 2.138-1.155 1.095-.584 2.457-1.078 2.673-1.078zm0-17.57c.057 0 .662.02 1.546.321.93.32 1.941.718 2.406.718.465 0 3.92-.68 3.92-.68s4.092 5.08 4.092 6.171c0 1.09-.515 1.373-1.03 1.937-.516.565-2.782 3.035-3.068 3.349-.293.314-.898.795-.541 1.661.356.866.878 1.963.299 3.08-.586 1.115-1.585 1.86-2.221 1.737-.643-.121-2.145-.93-2.698-1.302-.554-.365-2.304-1.854-2.304-2.424 0-.571 1.814-1.591 2.144-1.822.338-.231 1.865-1.13 1.897-1.482.032-.353.019-.455-.433-1.328-.452-.872-1.26-2.033-1.126-2.803.133-.77 1.444-1.174 2.38-1.54.935-.359 2.73-1.045 2.96-1.154.222-.109.165-.205-.516-.276-.681-.064-2.61-.327-3.481-.083-.872.25-2.361.629-2.476.827-.114.2-.23.206-.102.905.121.692.764 4.022.821 4.612.064.59.185.981-.439 1.129-.624.147-1.667.397-2.024.397-.356 0-1.406-.25-2.023-.397-.624-.148-.503-.539-.44-1.13.064-.59.7-3.918.822-4.611.12-.693.019-.7-.102-.905-.121-.198-1.61-.577-2.482-.827-.872-.25-2.8.013-3.481.083s-.738.167-.516.276c.223.11 2.024.789 2.96 1.155.935.359 2.24.763 2.38 1.54.133.769-.675 1.93-1.127 2.802-.452.873-.464.975-.433 1.328.032.353 1.56 1.25 1.89 1.482.338.23 2.145 1.25 2.145 1.822 0 .57-1.75 2.052-2.304 2.424-.553.366-2.055 1.174-2.698 1.302-.643.122-1.642-.622-2.22-1.738-.586-1.116-.058-2.213.298-3.079.357-.866-.248-1.347-.54-1.661-.293-.314-2.553-2.784-3.068-3.349-.516-.564-1.031-.853-1.031-1.937s4.092-6.17 4.092-6.17 3.455.68 3.92.68c.465 0 1.476-.398 2.406-.719.929-.32 1.552-.32 1.552-.32h-.006zM40.43 21.09V8.237h1.203c.98 0 1.77.815 1.77 1.816v5.715c1.922-1.758 3.557-2.463 5.74-2.508 4.18-.09 7.808 3.092 8.152 7.364.413 5.1-3.208 8.941-7.93 8.941-5.18 0-8.934-3.29-8.934-8.473zm2.922 1.008c.292 2.656 2.768 4.85 5.377 4.894 3.398.052 5.715-2.22 5.715-5.574 0-3.355-2.266-5.574-5.569-5.574-3.531-.006-5.924 2.623-5.523 6.26v-.006zm18.9-8.519v2.29c1.871-2.123 2.979-2.694 5.161-2.694.637 0 1.273.051 1.903.154v3.04a7.675 7.675 0 0 0-2.055-.282c-1.585 0-2.915.532-3.889 1.533-.852.879-1.107 1.565-1.107 2.95v8.468h-3.08v-15.46h3.074-.007zm7.789 5.112c.16-1.507.446-2.322 1.076-3.104 1.266-1.591 3.551-2.412 6.777-2.412 2.565 0 4.436.41 5.734 1.283 1.076.718 1.521 1.79 1.521 3.669v6.863c0 1.508.382 2.04 1.426 2.008.235-.006.464-.032.7-.064v2.072c-.522.18-1.07.27-1.617.25-1.928 0-2.819-.597-3.417-2.322-1.903 1.79-3.863 2.54-6.682 2.54-3.767 0-6.084-1.758-6.084-4.612-.019-1.63.917-3.111 2.374-3.759 1.139-.5 1.84-.66 5.097-1.007 2.788-.282 3.265-.346 4.054-.596.853-.283 1.235-.751 1.235-1.534 0-1.66-1.362-2.412-4.213-2.412-2.698 0-4.086.546-4.64 1.944a1.831 1.831 0 0 1-1.699 1.187h-1.648l.007.006zm12.181 2.637a29.28 29.28 0 0 1-5.988 1.128c-2.756.283-3.609.815-3.609 2.226 0 1.566 1.267 2.393 3.768 2.393 2.055 0 3.608-.532 4.722-1.565.884-.847 1.107-1.443 1.107-2.919v-1.263zm12.486 7.704h-.796c-.7 0-1.336-.404-1.642-1.046L85.627 13.58h1.845a2.714 2.714 0 0 1 2.495 1.636l4.429 10.36 4.582-10.399a2.713 2.713 0 0 1 2.482-1.61h1.68l-6.797 14.44a1.815 1.815 0 0 1-1.635 1.032v-.006zm10.519-6.832c.319 2.983 2.59 4.83 5.983 4.83 1.928 0 3.366-.583 4.263-1.757a2.718 2.718 0 0 1 2.151-1.065h1.788c-1.553 3.509-4.339 5.234-8.489 5.234-5.186 0-8.68-3.226-8.68-8.056 0-4.83 3.576-8.217 8.743-8.217 3.736 0 6.74 1.725 7.949 4.612.541 1.328.758 2.508.758 4.42h-14.472.006zm11.341-2.392c-.701-2.726-2.756-4.266-5.607-4.266-2.851 0-4.907 1.54-5.638 4.266h11.245z"/><path d="M22.052 0c.223 0 .439.096.585.27l2.877 3.354c.038-.006.07-.013.108-.02.694-.12 1.406-.172 2.094-.089.878.103 1.622.41 2.182.988a102.38 102.38 0 0 1 2.374 2.514c.261.283.318.616.204.905l-.745 1.873.987 2.9a.838.838 0 0 1 .019.467l-.038.16c-.03.12-.068.268-.115.443-.12.481-.26 1.014-.407 1.591-.42 1.649-.847 3.29-1.241 4.83-.974 3.798-1.61 6.3-1.763 6.922-.834 3.393-1.502 4.567-3.646 6.119-1.878 1.36-5.804 4.086-6.555 4.567-.07.045-.153.103-.255.173l-.299.206a6.52 6.52 0 0 1-.91.551 2.37 2.37 0 0 1-1.044.263c-.343 0-.687-.096-1.043-.263a6.46 6.46 0 0 1-.91-.551c-.058-.039-.255-.18-.3-.206-.108-.07-.184-.128-.254-.173-.757-.481-4.677-3.207-6.555-4.567-2.144-1.552-2.806-2.726-3.646-6.12-.153-.622-.79-3.123-1.757-6.895-.4-1.565-.827-3.214-1.247-4.856-.146-.577-.286-1.11-.407-1.59a202.7 202.7 0 0 1-.115-.443 1.389 1.389 0 0 1-.038-.16.837.837 0 0 1 .02-.469l.986-2.9-.745-1.872a.821.821 0 0 1 .153-.853c.089-.103.14-.154.19-.212a102.525 102.525 0 0 1 2.234-2.36c.56-.571 1.305-.88 2.183-.988a6.97 6.97 0 0 1 2.094.09c.038.006.076.012.108.019l2.87-3.349A.767.767 0 0 1 10.871 0h11.18zm-.357 1.604H11.22L8.274 5.042a.768.768 0 0 1-.795.244c-.013 0-.051-.013-.109-.026a3.589 3.589 0 0 0-.343-.07 5.713 5.713 0 0 0-1.642-.078c-.554.064-.98.244-1.26.526-.573.59-1.146 1.187-1.687 1.77-.127.135-.248.27-.362.386l.662 1.674a.82.82 0 0 1 .012.564L1.745 12.99c.025.11.038.148.095.366.121.481.261 1.013.408 1.59.42 1.65.846 3.291 1.24 4.83.974 3.811 1.617 6.306 1.77 6.935.75 3.053 1.234 3.9 3.029 5.202 1.858 1.34 5.76 4.054 6.485 4.522.089.058.184.122.305.206.045.032.242.173.3.205.305.211.502.34.693.423.165.077.299.115.388.115.09 0 .216-.038.388-.115.185-.09.388-.218.694-.423.05-.039.254-.18.299-.206.12-.083.216-.147.305-.205.726-.468 4.627-3.175 6.485-4.522 1.801-1.302 2.278-2.149 3.03-5.202.152-.629.795-3.13 1.762-6.909.401-1.565.828-3.213 1.248-4.855.146-.578.286-1.11.407-1.591.057-.218.063-.257.095-.366l-1.005-2.957a.818.818 0 0 1 .012-.564l.662-1.674a9.541 9.541 0 0 0-.362-.385c-.541-.584-1.114-1.18-1.687-1.77-.274-.283-.7-.463-1.26-.527-.515-.064-1.082-.025-1.642.077-.127.026-.242.045-.343.07-.058.014-.096.027-.109.027a.768.768 0 0 1-.795-.244l-2.947-3.438zm-5.237 22.47c.21 0 1.578.493 2.673 1.077 1.094.584 1.89.994 2.138 1.155.255.16.102.468-.133.635-.23.167-3.335 2.636-3.634 2.905-.3.276-.745.725-1.044.725-.3 0-.745-.449-1.044-.725-.299-.275-3.404-2.738-3.633-2.905-.23-.167-.389-.475-.134-.635.255-.16 1.044-.571 2.138-1.155 1.095-.584 2.457-1.078 2.673-1.078zm0-17.57c.057 0 .662.02 1.546.321.93.32 1.941.718 2.406.718.465 0 3.92-.68 3.92-.68s4.092 5.08 4.092 6.171c0 1.09-.515 1.373-1.03 1.937-.516.565-2.782 3.035-3.068 3.349-.293.314-.898.795-.541 1.661.356.866.878 1.963.299 3.08-.586 1.115-1.585 1.86-2.221 1.737-.643-.121-2.145-.93-2.698-1.302-.554-.365-2.304-1.854-2.304-2.424 0-.571 1.814-1.591 2.144-1.822.338-.231 1.865-1.13 1.897-1.482.032-.353.019-.455-.433-1.328-.452-.872-1.26-2.033-1.126-2.803.133-.77 1.444-1.174 2.38-1.54.935-.359 2.73-1.045 2.96-1.154.222-.109.165-.205-.516-.276-.681-.064-2.61-.327-3.481-.083-.872.25-2.361.629-2.476.827-.114.2-.23.206-.102.905.121.692.764 4.022.821 4.612.064.59.185.981-.439 1.129-.624.147-1.667.397-2.024.397-.356 0-1.406-.25-2.023-.397-.624-.148-.503-.539-.44-1.13.064-.59.7-3.918.822-4.611.12-.693.019-.7-.102-.905-.121-.198-1.61-.577-2.482-.827-.872-.25-2.8.013-3.481.083s-.738.167-.516.276c.223.11 2.024.789 2.96 1.155.935.359 2.24.763 2.38 1.54.133.769-.675 1.93-1.127 2.802-.452.873-.464.975-.433 1.328.032.353 1.56 1.25 1.89 1.482.338.23 2.145 1.25 2.145 1.822 0 .57-1.75 2.052-2.304 2.424-.553.366-2.055 1.174-2.698 1.302-.643.122-1.642-.622-2.22-1.738-.586-1.116-.058-2.213.298-3.079.357-.866-.248-1.347-.54-1.661-.293-.314-2.553-2.784-3.068-3.349-.516-.564-1.031-.853-1.031-1.937s4.092-6.17 4.092-6.17 3.455.68 3.92.68c.465 0 1.476-.398 2.406-.719.929-.32 1.552-.32 1.552-.32h-.006z"/></g></g><defs><clipPath id="a"><path fill="#fff" d="M0 0h120v39H0z"/></clipPath></defs></svg>