<svg xmlns="http://www.w3.org/2000/svg" width="88" height="28" fill="none"><g clip-path="url(#a)"><mask id="b" width="88" height="28" x="0" y="0" maskUnits="userSpaceOnUse" style="mask-type:luminance"><path fill="#fff" d="M87.294 0H0v28h87.294V0z"/></mask><g fill="#848486" mask="url(#b)"><path d="M80.842 0 62.044 27.75h5.771L86.711 0h-5.869zM68.416 0l5.531 8.177-2.885 4.46L62.525 0h5.891zm12.987 27.753-6.133-9.045 2.886-4.336 9.018 13.38h-5.772z"/><path fill-rule="evenodd" d="M55.31 0h5.05v27.75h-5.05v-1.037A9.99 9.99 0 0 1 50.397 28c-5.654 0-10.237-4.701-10.237-10.5S44.743 7 50.397 7a9.99 9.99 0 0 1 4.913 1.286V0zm-4.967 23.392c3.202 0 5.797-2.663 5.797-5.947 0-3.285-2.595-5.947-5.797-5.947-3.202 0-5.798 2.662-5.798 5.947 0 3.284 2.596 5.947 5.798 5.947z" clip-rule="evenodd"/><path d="m40.663 0-18.78 27.75h5.888L46.53 0h-5.868zM27.775 0l5.892 8.425-3.246 4.708L21.643 0h6.132z"/><path fill-rule="evenodd" d="M15.15 0h5.05v27.75h-5.05v-1.037A9.99 9.99 0 0 1 10.237 28C4.583 28 0 23.299 0 17.5S4.583 7 10.237 7a9.99 9.99 0 0 1 4.913 1.286V0zm-4.967 23.392c3.202 0 5.797-2.663 5.797-5.947 0-3.285-2.595-5.947-5.797-5.947-3.202 0-5.798 2.662-5.798 5.947 0 3.284 2.596 5.947 5.798 5.947z" clip-rule="evenodd"/></g></g><defs><clipPath id="a"><path fill="#fff" d="M0 0h88v28H0z"/></clipPath></defs></svg>