<svg xmlns="http://www.w3.org/2000/svg" width="101" height="29" fill="none"><g fill="#848486" clip-path="url(#a)"><path d="M26.572 28.382H22.43V8.31h4.142v20.072zM41.537 7.916c2.286 0 4.154.798 5.601 2.395 1.445 1.597 2.17 3.627 2.17 6.09v11.98h-4.142V17.029c0-1.546-.5-2.823-1.499-3.83-1-1.009-2.234-1.513-3.706-1.513-1.658 0-3.011.504-4.063 1.512-1.051 1.008-1.578 2.285-1.578 3.83v11.353h-4.142V8.31h4.142v5.185c.552-1.728 1.466-3.09 2.742-4.086 1.275-.995 2.768-1.493 4.477-1.493h-.002zm20.683 0c3.233 0 5.863 1.153 7.887 3.457 2.024 2.306 2.853 5.094 2.484 8.368H55.91c.289 1.624 1.038 2.94 2.248 3.949 1.21 1.008 2.668 1.512 4.377 1.512 1.314 0 2.49-.322 3.53-.963a6.636 6.636 0 0 0 2.425-2.613l3.471 1.533a10.416 10.416 0 0 1-3.825 4.085c-1.655 1.023-3.562 1.533-5.72 1.533-3.023 0-5.561-.996-7.612-2.985-2.051-1.988-3.078-4.464-3.078-7.424s1.006-5.44 3.017-7.445c2.012-2.003 4.502-3.005 7.476-3.005l.002-.002zm0 3.575c-1.527 0-2.847.465-3.965 1.396-1.118.93-1.861 2.14-2.228 3.633h12.385c-.341-1.493-1.072-2.704-2.188-3.633-1.118-.929-2.453-1.396-4.004-1.396zm21.822-3.575c2.42 0 4.391.628 5.915 1.885 1.525 1.257 2.289 3.065 2.289 5.421v13.16h-4.142v-5.341c-1.237 3.824-3.72 5.736-7.454 5.736-1.737 0-3.182-.517-4.34-1.551-1.157-1.035-1.734-2.39-1.734-4.065 0-1.964.695-3.439 2.09-4.42 1.393-.98 3.17-1.59 5.325-1.827l3.904-.394c1.472-.13 2.209-.786 2.209-1.963 0-.969-.375-1.742-1.124-2.317-.75-.576-1.729-.865-2.938-.865-1.21 0-2.283.316-3.136.944-.854.628-1.4 1.545-1.637 2.75l-4.102-.983c.369-1.885 1.354-3.385 2.959-4.498 1.603-1.112 3.575-1.67 5.916-1.67v-.002zm-2.051 17.52c1.71 0 3.154-.57 4.337-1.709 1.182-1.139 1.774-2.468 1.774-3.988v-1.1c-.315.526-1.079.851-2.288.982l-3.825.47c-1 .133-1.795.426-2.387.884-.591.458-.887 1.08-.887 1.866 0 .787.296 1.415.887 1.886.592.47 1.387.707 2.386.707l.003.002zm-62.413 2.946H.448V8.31h4.378v16.184h14.752v3.888zM96.15 7.916a3.896 3.896 0 0 0 3.904-3.889A3.896 3.896 0 0 0 96.15.14a3.896 3.896 0 0 0-3.904 3.888 3.896 3.896 0 0 0 3.904 3.889z"/></g><defs><clipPath id="a"><path fill="#fff" d="M0 0h101v29H0z"/></clipPath></defs></svg>