<svg xmlns="http://www.w3.org/2000/svg" width="170" height="33" fill="none"><g clip-path="url(#a)"><mask id="b" width="170" height="33" x="0" y="0" maskUnits="userSpaceOnUse" style="mask-type:luminance"><path fill="#fff" d="M169.353 0H0v33h169.353V0z"/></mask><g fill="#848486" mask="url(#b)"><path d="M4.733 33c5.103 0 8.939-4.398 11.228-7.873-.279.769-.433 1.538-.433 2.276 0 2.03 1.175 3.475 3.495 3.475 3.186 0 6.588-2.768 8.352-5.751a4.36 4.36 0 0 0-.186 1.2c0 1.414.804 2.306 2.444 2.306 5.165 0 10.362-9.073 10.362-17.008C39.995 5.444 36.84 0 28.92 0 15.001 0 0 16.854 0 27.74 0 32.017 2.32 33 4.733 33zm19.394-22.051c0-1.538.866-2.614 2.134-2.614 1.237 0 2.103 1.076 2.103 2.614 0 1.537-.866 2.645-2.103 2.645-1.268 0-2.134-1.107-2.134-2.645zm6.62 0c0-1.538.865-2.614 2.133-2.614 1.238 0 2.104 1.076 2.104 2.614 0 1.537-.866 2.645-2.104 2.645-1.268 0-2.134-1.107-2.134-2.645zM46.18 29.648h4.64v-4.521c0-2.122-.186-2.922-1.269-5.075l.588-.307c1.578 3.66 3.805 4.982 6.094 4.982 3.68 0 6.62-3.199 6.62-8.15 0-4.736-2.692-8.212-6.558-8.212-2.29 0-4.578 1.292-6.156 4.982l-.588-.307c.743-1.476 1.269-2.86 1.269-4.183h-4.64v20.79zm4.64-13.102c0-2.03 1.546-4.275 3.835-4.275 1.856 0 3.372 1.507 3.372 4.244 0 2.707-1.454 4.306-3.403 4.306-2.165 0-3.804-2.184-3.804-4.275zm13.726 7.689h4.64v-5.413c0-3.813 1.36-6.52 3.897-6.52 1.608 0 2.103 1.077 2.103 3.752v8.181h4.64v-8.919c0-4.86-1.763-6.95-5.135-6.95-3.464 0-4.609 2.306-5.939 5.105l-.587-.308c.804-1.722 1.02-2.768 1.02-4.305v-5.32h-4.64v20.697zm22.061.492c3 0 4.763-1.968 6.093-4.49l.557.276c-.588 1.2-1.144 2.584-1.144 3.722h4.546v-8.366c0-4.982-2.103-7.504-7.02-7.504-4.826 0-7.208 2.4-7.672 4.921l4.454.769c.155-1.322 1.238-2.214 2.97-2.214 1.732 0 2.722.86 2.722 1.906 0 1.046-1.021 1.538-3.743 1.569-4.021.061-6.99 1.507-6.99 4.582 0 2.522 2.01 4.829 5.227 4.829zm-.619-5.136c0-2.43 3.898-.738 6.032-2.614v.553c0 2.184-1.949 3.783-3.898 3.783-1.02 0-2.134-.43-2.134-1.722zm12.51 4.644h4.64v-5.413c0-3.814 1.361-6.52 3.898-6.52 1.608 0 2.102 1.076 2.102 3.752v8.18h4.64v-8.918c0-4.86-1.763-6.95-5.134-6.95-3.464 0-4.609 2.306-5.939 5.105l-.588-.308c.804-1.722 1.021-2.768 1.021-4.306h-4.64v15.378zm27.638.062v-3.814c-.99.338-3.742.922-3.742-1.323v-6.612h3.711v-3.69h-3.711V4.735l-4.671 1.384v2.737h-2.784v3.691h2.784l.031 6.981c0 5.137 4.609 5.875 8.382 4.768zm9.425.43c4.701 0 8.29-3.568 8.29-8.212 0-4.613-3.589-8.15-8.29-8.15-4.701 0-8.32 3.537-8.32 8.15 0 4.644 3.619 8.212 8.32 8.212zm-3.526-8.181c0-2.553 1.454-4.336 3.526-4.336s3.495 1.783 3.495 4.336c0 2.553-1.423 4.336-3.495 4.336s-3.526-1.783-3.526-4.336zm13.254 7.689h4.639v-5.413c0-3.967 1.268-6.52 3.309-6.52 1.331 0 1.763 1.046 1.763 3.752v8.18h4.641v-5.412c0-3.721 1.361-6.52 3.31-6.52 1.298 0 1.762 1.2 1.762 3.752v8.18h4.64v-8.918c0-4.89-1.609-6.95-4.763-6.95-3.279 0-4.454 2.306-5.599 5.135l-.557-.276c1.083-3.23-1.269-4.86-3.588-4.86-3.062 0-4.176 2.307-5.412 5.106l-.558-.308c.774-1.722 1.052-2.768 1.052-4.306h-4.639v15.378z"/></g></g><defs><clipPath id="a"><path fill="#fff" d="M0 0h170v33H0z"/></clipPath></defs></svg>