<svg xmlns="http://www.w3.org/2000/svg" width="168" height="42" fill="none"><path fill="#848486" fill-rule="evenodd" d="M.657.824c4.192 5.144 8.795 11.607 9.54 12.653l.085.12c.397.555.725.967.973 1.28.553.695.717.901.387 1.09a1.59 1.59 0 0 1-.814.204c-.31 0-.658-.15-.912-.394-.18-.172-1.407-1.976-3.08-4.6-1.279-2.007-2.35-3.672-2.379-3.7-.067-.064-.066-.062 2.249 4.127 1.454 2.63 2.448 4.574 2.448 4.698 0 .253-.068.386-.377.734-.514.58-.744 1.233-.91 2.582-.186 1.513-.71 2.581-2.16 4.41-.849 1.07-.988 1.267-1.202 1.699-.27.543-.344.847-.374 1.534-.032.725.03 1.194.25 1.887.191.607.392 1.009.904 1.81.442.693.696 1.207.696 1.408 0 .16.03.16.715.004 1.639-.374 2.97-1.032 3.718-1.839.463-.5.572-.775.576-1.459.002-.447-.014-.54-.133-.798-.195-.42-.55-.768-1.33-1.308-1.025-.707-1.462-1.277-1.583-2.06-.099-.643.016-1.097.583-2.297.586-1.242.731-1.772.83-3.024.063-.81.15-1.128.38-1.384.24-.267.456-.358 1.05-.44.967-.133 1.583-.386 2.09-.858.438-.41.622-.804.65-1.397l.022-.45-.246-.29C12.414 13.72.062 0 .007 0c-.012 0 .281.37.65.824zM6.48 28.08a.801.801 0 0 0-.242-1.048c-.318-.214-.811-.113-.811.165 0 .085.046.147.151.201.176.092.19.195.05.406-.14.213-.129.401.033.528.26.206.627.093.82-.252zm6.05-19.623c-.396-.062-.413-.07-.227-.099.358-.055 1.202.02 1.784.16 1.359.327 2.595 1.163 3.914 2.649l.351.395.502-.082c2.112-.343 4.261-.07 6.06.77.494.23 1.273.69 1.37.808.032.038.089.28.127.539.134.895.067 1.58-.204 2.093-.147.279-.155.367-.056.606.079.19.3.331.518.331.446 0 .927-.73 1.15-1.747l.088-.403.176.2c.961 1.102 1.717 2.604 1.846 3.674l.034.278-.162-.253c-.278-.436-.557-.733-.915-.973-.645-.431-1.328-.578-3.134-.674-1.632-.087-2.555-.228-3.471-.53-1.558-.514-2.343-1.198-4.194-3.653-.822-1.09-1.33-1.694-1.836-2.18-1.148-1.104-2.277-1.683-3.721-1.91zm14.123 2.435c.04-.731.139-1.213.336-1.653.078-.175.15-.317.162-.317.012 0-.022.128-.075.286-.143.427-.167 1.011-.068 1.69.125.863.196.988 1.098 1.92.423.437.915.988 1.093 1.225l.324.43-.324-.308c-.397-.376-1.308-1.11-1.51-1.214-.135-.07-.155-.07-.238.015-.077.077-.093.193-.104.742-.017.855-.132 1.404-.41 1.953-.15.297-.174.234-.038-.101.102-.25.112-.36.111-1.189-.001-1.663-.197-2.063-1.342-2.748-.29-.174-.769-.424-1.063-.557-.294-.132-.528-.248-.52-.256.033-.033 1.15.297 1.6.472.669.26.78.294.86.262.055-.02.081-.181.108-.652zM12.104 9.614c-.108 1.285.39 3.003 1.195 4.124.624.868 1.592 1.543 2.306 1.609.468.042.608-.106.397-.418-.294-.434-.655-1.102-.751-1.388-.06-.177-.188-.702-.287-1.165-.336-1.583-.666-2.2-1.428-2.668a4.575 4.575 0 0 0-1.215-.457l-.184-.034-.033.397zm13.571 12.464c-3.762-1.531-5.087-2.86-5.087-5.104 0-.33.011-.6.025-.6.014 0 .16.109.323.242.763.619 1.618.883 3.983 1.232 1.391.205 2.174.37 2.897.613 2.296.77 3.717 2.333 4.056 4.461.098.619.04 1.778-.12 2.39-.125.482-.51 1.353-.612 1.386-.028.01-.056-.1-.063-.25-.039-.799-.438-1.577-1.109-2.16-.763-.662-1.787-1.19-4.293-2.21zm-2.823-.168c.053.159.135.52.182.805.301 1.813-.64 3.278-2.471 3.846-.194.06-.958.21-1.697.335-1.497.252-2.165.43-2.836.758-.476.232-1.053.579-1.018.613.01.011.12-.015.241-.058.846-.3 1.788-.456 3.22-.531a28.43 28.43 0 0 0 1.435-.106c1.275-.162 2.159-.554 2.846-1.261.382-.394.61-.76.794-1.277.116-.328.132-.45.133-1.031.001-.592-.013-.7-.14-1.064-.165-.478-.36-.836-.606-1.116l-.179-.203.096.29zm1.907 3.901c-.5-1.086-.615-2.135-.341-3.113.03-.105.076-.19.105-.19.028 0 .146.064.262.143.23.157.692.42 1.923 1.1 1.536.846 2.411 1.501 3.007 2.25.521.656.844 1.403 1 2.314.087.517.036 1.758-.095 2.278-.413 1.638-1.373 2.926-2.742 3.677-.2.11-.38.2-.4.2-.02 0 .054-.187.163-.417.46-.974.513-1.92.165-2.974-.214-.645-.648-1.433-1.526-2.763-1.02-1.547-1.27-1.96-1.521-2.505zm-9.416 3.564c-1.582.26-3.32 1.107-4.715 2.299l-.416.355.365.057c1.906.301 2.42.568 3.742 1.945.76.793 1.018.969 1.649 1.132.927.24 1.84-.2 2.154-1.037.14-.373.122-.992-.04-1.302-.381-.74-1.495-.98-2.033-.438-.448.452-.318 1.132.24 1.249.128.027.124.02-.033-.05-.244-.112-.35-.267-.351-.513-.003-.578.65-.902 1.258-.625.445.204.622.469.622.934 0 .716-.603 1.256-1.305 1.168a1.912 1.912 0 0 1-1.08-.571c-.618-.708-.377-1.824.487-2.252.658-.326 1.532-.246 2.21.203.779.516 1.11.987 1.781 2.535.219.503.5 1.07.625 1.26.636.962 1.397 1.434 2.314 1.434.506 0 .887-.094 1.366-.336.355-.18.86-.52.823-.557-.01-.01-.158.036-.328.103-1.001.395-2.02.368-2.61-.07-.373-.276-.673-.824-.828-1.51a32.545 32.545 0 0 1-.196-1.167c-.205-1.324-.402-1.92-.863-2.603-.47-.698-1.376-1.285-2.388-1.547-.632-.164-1.768-.208-2.45-.096zm-2.216-10.24c.137-.51.578-.997 1.032-1.138.289-.09.886-.032 1.166.112.544.28.94.917.854 1.376-.105.56-1.004 1.01-2.038 1.017-.528.003-.723-.068-.925-.34-.125-.17-.172-.715-.089-1.027zm2.06-.826c.27.168.34.415.181.644-.11.158-.45.308-.698.308-.374 0-.781-.268-.781-.514 0-.493.781-.757 1.298-.438zm81.063 1.413c-.844-2.81.547-5.14 3.516-5.889.851-.214 4.707-.117 5.367.136.243.092.348.448.351 1.18.001.575.064 1.274.139 1.553.114.423.047.506-.399.5-.403-.007-.646-.243-.987-.959-.543-1.142-1.201-1.506-2.735-1.51-1.958-.006-3.39 1.314-3.157 2.908.151 1.038 1.187 2.059 3.511 3.462 2.211 1.335 3.502 2.433 4.016 3.417 1.375 2.63.201 5.444-2.863 6.862-1.572.728-4.208.803-6.061.173l-1.187-.403v-1.898c0-1.72.041-1.899.433-1.899.327 0 .468.217.583.896.286 1.687 1.567 2.712 3.392 2.712 1.787 0 3.037-.978 3.515-2.75.204-.756.169-1.034-.235-1.867-.485-.999-1.319-1.661-4.153-3.298-1.573-.908-2.685-2.123-3.046-3.326zm-55.554-4.767c-.387 0-.538-.127-.538-.45 0-.43.151-.452 3.181-.452 2.813 0 3.173.042 3.108.366-.04.2-.429.48-.864.62l-.791.254-.068 5.75c-.045 3.836.019 6.049.191 6.65.514 1.79 2.079 2.819 4.287 2.819 1.537 0 2.435-.36 3.564-1.428 1.213-1.15 1.407-2.24 1.403-7.913-.004-5.596-.101-6.058-1.302-6.174-.546-.053-.729-.18-.729-.507 0-.408.18-.437 2.712-.437 2.562 0 2.713.025 2.713.451 0 .278-.152.452-.396.454-1.047.01-1.066.11-1.207 6.245-.146 6.372-.283 7.126-1.573 8.687-.372.45-1.259 1.104-1.971 1.453-1.16.569-1.53.634-3.555.63-1.868-.004-2.457-.094-3.39-.52-1.364-.62-2.25-1.424-2.903-2.632-.457-.843-.496-1.3-.601-7.012-.121-6.539-.18-6.854-1.271-6.854zm21.15 0c-.516 0-.667-.102-.667-.45 0-.424.145-.45 2.317-.433l2.317.018 1.108 1.278c.61.703 2.596 2.901 4.414 4.885a434.889 434.889 0 0 1 4.64 5.13c.733.837 1.423 1.521 1.533 1.521.113 0 .17-2.364.13-5.43l-.072-5.431-.634-.544c-.349-.3-.883-.544-1.187-.544-.404 0-.552-.123-.552-.457 0-.44.115-.455 3.108-.395 2.544.052 3.108.123 3.108.392 0 .192-.315.393-.756.483-.415.085-.873.271-1.017.415-.186.185-.28 2.578-.326 8.253l-.065 7.993h-.655c-.564 0-1.236-.635-4.825-4.566-2.293-2.51-4.97-5.495-5.948-6.632-.978-1.136-1.855-2.075-1.948-2.085-.262-.03-.199 10.125.07 11.089.209.751.353.88 1.242 1.118.716.19 1.005.384 1.005.672 0 .37-.273.404-3.164.404-2.944 0-3.165-.03-3.165-.422 0-.288.213-.466.668-.556 1.38-.276 1.472-.713 1.55-7.393.043-3.74-.021-6.358-.17-6.906-.26-.964-.907-1.407-2.058-1.407zm23.701 0c-.484 0-.635-.107-.635-.45 0-.432.15-.452 3.39-.452s3.39.02 3.39.451c0 .33-.15.451-.564.451-.311 0-.773.207-1.026.46-.448.447-.46.669-.396 7.571.062 6.739.089 7.129.504 7.432.242.175.674.32.96.32.372 0 .523.13.523.45 0 .431-.151.451-3.39.451-3.163 0-3.391-.028-3.391-.422 0-.317.222-.457.895-.565 1.338-.213 1.406-.65 1.323-8.444-.067-6.242-.095-6.631-.51-6.933-.24-.176-.724-.32-1.073-.32zm23.65 0c-.309 0-.545-.172-.618-.45-.114-.437-.006-.452 3.251-.452 3.219 0 3.37.02 3.37.451 0 .347-.151.451-.651.451-1.423 0-1.391.258.763 6.154 1.096 3.002 2.16 5.853 2.365 6.336l.372.879 1.726-4.6c2.032-5.413 2.296-6.414 1.951-7.4-.24-.689-1.176-1.369-1.882-1.369-.199 0-.35-.194-.35-.45 0-.433.151-.452 3.504-.452 3.352 0 3.503.02 3.503.451 0 .32-.151.451-.522.451-.95 0-1.369.505-1.233 1.488.141 1.01 4.028 11.876 4.191 11.714.266-.265 4.571-11.962 4.571-12.418 0-.546-.383-.784-1.262-.784-.396 0-.546-.124-.546-.45 0-.427.15-.452 2.712-.452 2.301 0 2.712.053 2.712.35 0 .193-.281.448-.626.568-.775.27-.969.577-1.941 3.068l-2.969 7.608-2.308 5.918c-.063.165-.437.3-.831.3h-.715l-1.624-4.228a3090.86 3090.86 0 0 1-2.344-6.12c-.679-1.786-.736-1.863-.992-1.354-.149.298-1.222 3.057-2.384 6.133l-2.113 5.59-.788-.067-.789-.067-3.008-7.874c-1.68-4.399-3.225-8.105-3.501-8.398-.272-.289-.72-.525-.994-.525zm45.194.096c-.037-.086-.037-.394-.037-.394s-.009-.11.038-.17c.046-.06.063-.06.229-.076h.001a63.997 63.997 0 0 1 2.857-.201l.311-.014h.004c1.125-.051 3.137-.12 4.52-.05 2.654.132 4.541 1.416 5.185 3.538.643 2.122.303 4.114-.574 5.382-.877 1.268-2.351 2.36-4.802 2.288-2.023-.058-2.564-.438-2.997-.74a3.329 3.329 0 0 0-.272-.179v2.706c.021 1.846.037 2.732.179 3.06.193.442.627.714 1.475.923 0 0 .383.09.482.186.099.096.099.309.099.309s.02.199-.06.3c-.079.102-.232.082-.232.082l-3.752-.03-2.262-.007s-.237.046-.326-.05c-.089-.096-.081-.295-.081-.295s.019-.215.123-.31c.104-.097.49-.204.49-.204.873-.245 1.251-.505 1.449-.994.159-.393.16-1.124.158-7.085-.001-5.653-.009-6.707-.139-7.01-.191-.45-.671-.568-1.355-.738-.135-.034-.279-.07-.429-.11 0 0-.244-.032-.282-.117zm10.924 4.612c0 .927-.016 2.379-1.002 3.306-.986.928-2.927 1.182-4.244.924a2.742 2.742 0 0 1-.836-.304l-.018-.01-.338-.178-.019-3.256c-.013-2.041.009-3.37.057-3.56.044-1.077 1.629-1.21 2.404-1.17 3.314 0 3.899 2.795 3.996 4.248zm-21.331-5.484-.408.156-.885.457-.637 1.593c-.35.876-.992 2.484-1.425 3.573a871.619 871.619 0 0 1-1.858 4.649c-.161.4-.648 1.619-1.081 2.708-.434 1.09-.868 2.126-.964 2.304l-.051.095c-.242.456-.664 1.249-1.408 1.369 0 0-.409.04-.561.19-.151.15-.136.272-.136.272v.189s.013.091.099.137a.526.526 0 0 0 .202.048l2.722-.03h2.814s.199.023.276-.041a.326.326 0 0 0 .098-.158v-.2s-.04-.215-.151-.299c-.111-.084-.529-.142-.529-.142-1.126-.148-1.32-1-1.181-1.767.068-.377.521-1.77 1.03-3.174l.177-.485 2.948-.022c1.621-.013 3.021-.005 3.111.018.128.033.307.397.833 1.694.797 1.965.861 2.205.684 2.572l-.034.074c-.166.356-.488 1.046-1.298 1.117 0 0-.429.015-.536.143-.107.13-.084.277-.084.277v.197s.029.115.084.16c.055.046.148.035.148.035l2.676-.02h3.762s.147.016.188-.04a.305.305 0 0 0 .048-.124v-.261s-.016-.14-.089-.216c-.072-.076-.56-.157-.56-.157-.623-.101-.933-.616-1.164-1a3.43 3.43 0 0 0-.166-.258c-.107-.146-.489-.947-.789-1.717l-1.502-3.866-1.632-4.204-1.569-4.042-.218-.562c-.33-.852-.462-1.195-.499-1.242-.118-.15-.485 0-.485 0zm-.175 5.179c-.119-.29-.328-.808-.465-1.152-.248-.626-.342-.77-.419-.641-.023.038-.179.466-.347.951a622.459 622.459 0 0 1-1.684 4.825c-.063.168-.113.34-.113.384 0 .05.887.08 2.407.08 1.324 0 2.408-.017 2.408-.037 0-.02-.118-.32-.263-.667a267.99 267.99 0 0 1-.785-1.924 858.54 858.54 0 0 0-.739-1.82z" clip-rule="evenodd"/></svg>